<svg width="31" height="31" viewBox="0 0 31 31" fill="none" xmlns="http://www.w3.org/2000/svg">
<g clip-path="url(#clip0_105_827)">
<path d="M15.4997 19.6334C17.7825 19.6334 19.6331 17.7828 19.6331 15.5001C19.6331 13.2173 17.7825 11.3667 15.4997 11.3667C13.217 11.3667 11.3664 13.2173 11.3664 15.5001C11.3664 17.7828 13.217 19.6334 15.4997 19.6334Z" fill="white"/>
<path d="M11.625 2.58333L9.26125 5.16667H5.16667C3.74584 5.16667 2.58334 6.32917 2.58334 7.75V23.25C2.58334 24.6708 3.74584 25.8333 5.16667 25.8333H25.8333C27.2542 25.8333 28.4167 24.6708 28.4167 23.25V7.75C28.4167 6.32917 27.2542 5.16667 25.8333 5.16667H21.7388L19.375 2.58333H11.625ZM15.5 21.9583C11.935 21.9583 9.04167 19.065 9.04167 15.5C9.04167 11.935 11.935 9.04167 15.5 9.04167C19.065 9.04167 21.9583 11.935 21.9583 15.5C21.9583 19.065 19.065 21.9583 15.5 21.9583Z" fill="white"/>
</g>
<defs>
<clipPath id="clip0_105_827">
<rect width="31" height="31" fill="white"/>
</clipPath>
</defs>
</svg>
