<svg width="17" height="17" viewBox="0 0 17 17" fill="none" xmlns="http://www.w3.org/2000/svg">
<g clip-path="url(#clip0_105_849)">
<path d="M5.47876 16.627C5.3142 16.627 5.17433 16.5694 5.05914 16.4543C4.94395 16.3391 4.88635 16.1992 4.88635 16.0346V13.4346H2.92811C2.39055 13.4346 1.89414 13.3002 1.43886 13.0314C0.983583 12.7627 0.621555 12.4006 0.352777 11.9454C0.0839988 11.4901 -0.0503902 10.9937 -0.0503902 10.4561V3.87379C-0.0503902 3.33623 0.0839988 2.83981 0.352777 2.38454C0.621555 1.92926 0.983583 1.56723 1.43886 1.29845C1.89414 1.02967 2.39055 0.895286 2.92811 0.895286H11.9788C12.5164 0.895286 13.0128 1.02967 13.4681 1.29845C13.9233 1.56723 14.2854 1.92926 14.5541 2.38454C14.8229 2.83981 14.9573 3.33623 14.9573 3.87379V10.4561C14.9573 10.9937 14.8229 11.4901 14.5541 11.9454C14.2854 12.4006 13.9233 12.7627 13.4681 13.0314C13.0128 13.3002 12.5164 13.4346 11.9788 13.4346H9.29651L5.8737 16.4789C5.76399 16.5777 5.63235 16.627 5.47876 16.627ZM2.92811 1.91555C2.57705 1.91555 2.25068 2.00331 1.94899 2.17884C1.6473 2.35437 1.40869 2.59298 1.23316 2.89467C1.05763 3.19636 0.96987 3.52273 0.96987 3.87379V10.4561C0.96987 10.8072 1.05763 11.1335 1.23316 11.4352C1.40869 11.7369 1.6473 11.9755 1.94899 12.1511C2.25068 12.3266 2.57705 12.4144 2.92811 12.4144H5.90661V15.0637L8.90157 12.4144H11.9788C12.3299 12.4144 12.6562 12.3266 12.9579 12.1511C13.2596 11.9755 13.4982 11.7369 13.6738 11.4352C13.8493 11.1335 13.937 10.8072 13.937 10.4561V3.87379C13.937 3.52273 13.8493 3.19636 13.6738 2.89467C13.4982 2.59298 13.2596 2.35437 12.9579 2.17884C12.6562 2.00331 12.3299 1.91555 11.9788 1.91555H2.92811Z" fill="white"/>
</g>
<defs>
<clipPath id="clip0_105_849">
<rect width="16.4558" height="16.4558" fill="white" transform="matrix(1 0 0 -1 0 16.4558)"/>
</clipPath>
</defs>
</svg>
