<svg width="25" height="26" viewBox="0 0 25 26" fill="none" xmlns="http://www.w3.org/2000/svg">
<path d="M16.1098 23.3071H9.76742C9.44325 23.3071 9.1649 23.1908 8.93234 22.9582C8.69979 22.7257 8.58351 22.4473 8.58351 22.1231V14.8506H4.60898C4.38347 14.8506 4.17206 14.7872 3.97475 14.6603C3.77743 14.5335 3.62944 14.3608 3.53078 14.1424C3.43212 13.9239 3.40041 13.6984 3.43565 13.4658C3.47088 13.2333 3.56602 13.0325 3.72105 12.8633L12.0507 3.62465C12.2903 3.37095 12.5862 3.24411 12.9386 3.24411C13.2909 3.24411 13.5869 3.37095 13.8265 3.62465L22.1561 12.8633C22.3112 13.0325 22.4063 13.2333 22.4415 13.4658C22.4768 13.6984 22.4486 13.9239 22.357 14.1424C22.2654 14.3608 22.1209 14.5335 21.9236 14.6603C21.7263 14.7872 21.5078 14.8506 21.2682 14.8506H17.2937V22.1231C17.2937 22.4473 17.1774 22.7257 16.9448 22.9582C16.7123 23.1908 16.4339 23.3071 16.1098 23.3071ZM9.89427 21.9963H15.9829V13.5398L20.9722 13.5187L12.9386 4.61828L4.90496 13.5187H9.89427V21.9963Z" fill="white"/>
</svg>
