<svg width="25" height="26" viewBox="0 0 25 26" fill="none" xmlns="http://www.w3.org/2000/svg">
<path d="M12.4799 23.3176C12.1275 23.3176 11.8316 23.1837 11.592 22.9159L3.26235 13.6773C3.10731 13.5081 3.01218 13.3073 2.97694 13.0747C2.94171 12.8422 2.9699 12.6167 3.06151 12.3982C3.15312 12.1798 3.29758 12.0071 3.4949 11.8803C3.69222 11.7534 3.91068 11.69 4.15028 11.69H8.12481V4.41744C8.12481 4.09328 8.24109 3.81492 8.47364 3.58237C8.70619 3.34982 8.98455 3.23354 9.30872 3.23354H15.6511C15.9752 3.23354 16.2536 3.34982 16.4861 3.58237C16.7187 3.81492 16.835 4.09328 16.835 4.41744V11.69H20.8095C21.035 11.69 21.2464 11.7534 21.4437 11.8803C21.641 12.0071 21.789 12.1798 21.8877 12.3982C21.9864 12.6167 22.0181 12.8422 21.9828 13.0747C21.9476 13.3073 21.8525 13.5081 21.6974 13.6773L13.3678 22.9159C13.1282 23.1837 12.8322 23.3176 12.4799 23.3176ZM4.44625 13.0219L12.4799 21.9223L20.5135 13.0219H15.5242V4.54429H9.43556V13.0007L4.44625 13.0219Z" fill="white"/>
</svg>
