<svg width="31" height="31" viewBox="0 0 31 31" fill="none" xmlns="http://www.w3.org/2000/svg">
<g clip-path="url(#clip0_109_1773)">
<path d="M25.8333 11.2246V5.16667H19.7753L15.4999 0.891254L11.2245 5.16667H5.16659V11.2246L0.891174 15.5L5.16659 19.7754V25.8333H11.2245L15.4999 30.1088L19.7753 25.8333H25.8333V19.7754L30.1087 15.5L25.8333 11.2246ZM15.4999 23.25C11.2245 23.25 7.74992 19.7754 7.74992 15.5C7.74992 11.2246 11.2245 7.75 15.4999 7.75C19.7753 7.75 23.2499 11.2246 23.2499 15.5C23.2499 19.7754 19.7753 23.25 15.4999 23.25ZM15.4999 10.3333C12.6453 10.3333 10.3333 12.6454 10.3333 15.5C10.3333 18.3546 12.6453 20.6667 15.4999 20.6667C18.3545 20.6667 20.6666 18.3546 20.6666 15.5C20.6666 12.6454 18.3545 10.3333 15.4999 10.3333Z" fill="#714EF4"/>
</g>
<defs>
<clipPath id="clip0_109_1773">
<rect width="31" height="31" fill="white"/>
</clipPath>
</defs>
</svg>
