<svg width="17" height="17" viewBox="0 0 17 17" fill="none" xmlns="http://www.w3.org/2000/svg">
<g clip-path="url(#clip0_109_1789)">
<path d="M5.47874 16.627C5.31418 16.627 5.1743 16.5694 5.05911 16.4543C4.94392 16.3391 4.88633 16.1992 4.88633 16.0346V13.4346H2.92809C2.39053 13.4346 1.89411 13.3002 1.43884 13.0314C0.983558 12.7627 0.62153 12.4006 0.352752 11.9454C0.083974 11.4901 -0.050415 10.9937 -0.050415 10.4561V3.87379C-0.050415 3.33623 0.083974 2.83981 0.352752 2.38454C0.62153 1.92926 0.983558 1.56723 1.43884 1.29845C1.89411 1.02967 2.39053 0.895286 2.92809 0.895286H11.9788C12.5163 0.895286 13.0128 1.02967 13.468 1.29845C13.9233 1.56723 14.2853 1.92926 14.5541 2.38454C14.8229 2.83981 14.9573 3.33623 14.9573 3.87379V10.4561C14.9573 10.9937 14.8229 11.4901 14.5541 11.9454C14.2853 12.4006 13.9233 12.7627 13.468 13.0314C13.0128 13.3002 12.5163 13.4346 11.9788 13.4346H9.29648L5.87368 16.4789C5.76397 16.5777 5.63232 16.627 5.47874 16.627ZM2.92809 1.91555C2.57703 1.91555 2.25066 2.00331 1.94897 2.17884C1.64728 2.35437 1.40867 2.59298 1.23314 2.89467C1.05761 3.19636 0.969845 3.52273 0.969845 3.87379V10.4561C0.969845 10.8072 1.05761 11.1335 1.23314 11.4352C1.40867 11.7369 1.64728 11.9755 1.94897 12.1511C2.25066 12.3266 2.57703 12.4144 2.92809 12.4144H5.90659V15.0637L8.90154 12.4144H11.9788C12.3298 12.4144 12.6562 12.3266 12.9579 12.1511C13.2596 11.9755 13.4982 11.7369 13.6737 11.4352C13.8493 11.1335 13.937 10.8072 13.937 10.4561V3.87379C13.937 3.52273 13.8493 3.19636 13.6737 2.89467C13.4982 2.59298 13.2596 2.35437 12.9579 2.17884C12.6562 2.00331 12.3298 1.91555 11.9788 1.91555H2.92809Z" fill="#714EF4"/>
</g>
<defs>
<clipPath id="clip0_109_1789">
<rect width="16.4558" height="16.4558" fill="white" transform="matrix(1 0 0 -1 0 16.4558)"/>
</clipPath>
</defs>
</svg>
