<svg width="23" height="23" viewBox="0 0 23 23" fill="none" xmlns="http://www.w3.org/2000/svg">
<path d="M15.2104 20.1931C14.5001 20.1931 13.8964 19.9445 13.3992 19.4473C12.9021 18.9502 12.6535 18.3464 12.6535 17.6362C12.6535 17.551 12.6748 17.3521 12.7174 17.0396L6.72997 13.5451C6.50269 13.7582 6.2399 13.9253 5.94159 14.0463C5.64329 14.1673 5.32367 14.2275 4.98275 14.227C4.2725 14.227 3.66878 13.9784 3.17161 13.4812C2.67443 12.984 2.42584 12.3803 2.42584 11.6701C2.42584 10.9598 2.67443 10.3561 3.17161 9.85893C3.66878 9.36175 4.2725 9.11316 4.98275 9.11316C5.32367 9.11316 5.64329 9.17367 5.94159 9.2947C6.2399 9.41573 6.50269 9.5825 6.72997 9.795L12.7174 6.30056C12.689 6.20113 12.6714 6.10538 12.6646 6.01334C12.6577 5.92129 12.654 5.81816 12.6535 5.70395C12.6535 4.9937 12.9021 4.38998 13.3992 3.89281C13.8964 3.39563 14.5001 3.14704 15.2104 3.14704C15.9206 3.14704 16.5244 3.39563 17.0215 3.89281C17.5187 4.38998 17.7673 4.9937 17.7673 5.70395C17.7673 6.4142 17.5187 7.01792 17.0215 7.51509C16.5244 8.01227 15.9206 8.26086 15.2104 8.26086C14.8695 8.26086 14.5498 8.20034 14.2515 8.07932C13.9532 7.95829 13.6904 7.79152 13.4632 7.57902L7.47574 11.0735C7.50415 11.1729 7.52204 11.2689 7.52943 11.3615C7.53682 11.4542 7.54023 11.557 7.53966 11.6701C7.53909 11.7831 7.53568 11.8863 7.52943 11.9795C7.52318 12.0726 7.50528 12.1684 7.47574 12.2667L13.4632 15.7611C13.6904 15.548 13.9532 15.3813 14.2515 15.2608C14.5498 15.1404 14.8695 15.0798 15.2104 15.0793C15.9206 15.0793 16.5244 15.3279 17.0215 15.825C17.5187 16.3222 17.7673 16.9259 17.7673 17.6362C17.7673 18.3464 17.5187 18.9502 17.0215 19.4473C16.5244 19.9445 15.9206 20.1931 15.2104 20.1931ZM15.2104 18.4885C15.4519 18.4885 15.6544 18.407 15.8181 18.2439C15.9817 18.0808 16.0633 17.8782 16.0627 17.6362C16.0621 17.3941 15.9803 17.1919 15.8172 17.0293C15.6542 16.8668 15.4519 16.785 15.2104 16.7839C14.9689 16.7827 14.7666 16.8646 14.6035 17.0293C14.4405 17.1941 14.3586 17.3964 14.3581 17.6362C14.3575 17.876 14.4393 18.0785 14.6035 18.2439C14.7678 18.4092 14.97 18.4908 15.2104 18.4885ZM4.98275 12.5224C5.22424 12.5224 5.4268 12.4405 5.59044 12.2769C5.75408 12.1133 5.83562 11.911 5.83505 11.6701C5.83449 11.4292 5.75266 11.2269 5.58959 11.0632C5.42652 10.8996 5.22424 10.8178 4.98275 10.8178C4.74126 10.8178 4.53899 10.8996 4.37591 11.0632C4.21284 11.2269 4.13102 11.4292 4.13045 11.6701C4.12988 11.911 4.2117 12.1136 4.37591 12.2778C4.54012 12.442 4.7424 12.5235 4.98275 12.5224ZM15.2104 6.55625C15.4519 6.55625 15.6544 6.47443 15.8181 6.31079C15.9817 6.14715 16.0633 5.94487 16.0627 5.70395C16.0621 5.46303 15.9803 5.26075 15.8172 5.09711C15.6542 4.93347 15.4519 4.85165 15.2104 4.85165C14.9689 4.85165 14.7666 4.93347 14.6035 5.09711C14.4405 5.26075 14.3586 5.46303 14.3581 5.70395C14.3575 5.94487 14.4393 6.14743 14.6035 6.31164C14.7678 6.47585 14.97 6.55739 15.2104 6.55625Z" fill="#714EF4"/>
</svg>
