<svg width="41" height="41" viewBox="0 0 41 41" fill="none" xmlns="http://www.w3.org/2000/svg">
<g clip-path="url(#clip0_109_1779)">
<path d="M28.1875 20.5C30.545 20.5 32.4413 18.5867 32.4413 16.2292C32.4413 13.8717 30.545 11.9583 28.1875 11.9583C25.83 11.9583 23.9167 13.8717 23.9167 16.2292C23.9167 18.5867 25.83 20.5 28.1875 20.5ZM15.375 18.7917C18.2109 18.7917 20.4829 16.5025 20.4829 13.6667C20.4829 10.8308 18.2109 8.54166 15.375 8.54166C12.5392 8.54166 10.25 10.8308 10.25 13.6667C10.25 16.5025 12.5392 18.7917 15.375 18.7917ZM28.1875 23.9167C25.0613 23.9167 18.7917 25.4883 18.7917 28.6146V32.4583H37.5834V28.6146C37.5834 25.4883 31.3138 23.9167 28.1875 23.9167ZM15.375 22.2083C11.3946 22.2083 3.41669 24.2071 3.41669 28.1875V32.4583H15.375V28.6146C15.375 27.1625 15.9388 24.6171 19.4238 22.6867C17.9375 22.3792 16.5025 22.2083 15.375 22.2083Z" fill="#714EF4"/>
</g>
<defs>
<clipPath id="clip0_109_1779">
<rect width="41" height="41" fill="white"/>
</clipPath>
</defs>
</svg>
