<svg width="81" height="81" viewBox="0 0 81 81" fill="none" xmlns="http://www.w3.org/2000/svg">
<g filter="url(#filter0_d_109_1788)">
<mask id="path-1-outside-1_109_1788" maskUnits="userSpaceOnUse" x="4" y="0" width="73" height="73" fill="black">
<rect fill="white" x="4" width="73" height="73"/>
<path d="M40.5792 27.7283H64.2975C62.9147 24.0065 60.7076 20.7173 57.676 17.861C54.6465 15.0068 51.1907 13.092 47.3083 12.1167L39.417 25.7207C39.1404 26.1682 39.1394 26.6147 39.4138 27.0602C39.6883 27.5077 40.0767 27.7315 40.5792 27.7315M30.5187 32.054C30.7931 32.5016 31.1805 32.7253 31.6808 32.7253C32.1812 32.7253 32.5696 32.5016 32.8462 32.054L44.8352 11.4929C44.2546 11.381 43.5326 11.2986 42.6692 11.2459C41.8057 11.1931 41.0827 11.1667 40.5 11.1667C37.0167 11.1667 33.7708 11.8264 30.7625 13.1459C27.7542 14.4653 25.0889 16.2334 22.7667 18.45L30.5187 32.054ZM15.9583 42.8333H31.6017C32.0893 42.8333 32.4778 42.6096 32.767 42.162C33.0562 41.7145 33.0626 41.268 32.786 40.8225L21.0377 20.3753C19.1862 22.6596 17.7454 25.1528 16.7152 27.855C15.6828 30.5593 15.1667 33.441 15.1667 36.5C15.1667 37.6083 15.2332 38.6776 15.3662 39.7078C15.4992 40.7381 15.6966 41.7799 15.9583 42.8333ZM33.8152 60.8833L41.6875 47.2793C41.9619 46.8318 41.9556 46.3853 41.6685 45.9398C41.3814 45.4944 40.994 45.2706 40.5063 45.2685H16.6993C18.0842 48.9925 20.3125 52.2827 23.3842 55.139C26.4558 57.9953 29.9339 59.9101 33.8183 60.8833M40.5 61.8333C43.9833 61.8333 47.2292 61.1736 50.2375 59.8542C53.2458 58.5347 55.9111 56.7667 58.2333 54.55L50.4813 40.946C50.2069 40.4985 49.8195 40.2747 49.3192 40.2747C48.8188 40.2747 48.4304 40.4985 48.1538 40.946L36.2852 61.3963C36.8657 61.542 37.555 61.6518 38.353 61.7257C39.151 61.7996 39.8667 61.8355 40.5 61.8333ZM59.9623 52.6247C61.6512 50.4608 63.0519 47.9718 64.1645 45.1577C65.277 42.3436 65.8333 39.4577 65.8333 36.5C65.8333 35.3917 65.7679 34.3235 65.637 33.2953C65.5061 32.2672 65.3077 31.2243 65.0417 30.1667H49.3983C48.9107 30.1667 48.5222 30.3905 48.233 30.838C47.9438 31.2856 47.9374 31.7321 48.214 32.1775L59.9623 52.6247ZM40.481 65C36.5712 65 32.8863 64.2537 29.4262 62.7612C25.9661 61.2686 22.9429 59.2282 20.3568 56.64C17.7707 54.0518 15.7314 51.0287 14.2388 47.5707C12.7463 44.1127 12 40.4288 12 36.519C12 32.5628 12.7494 28.8567 14.2483 25.4008C15.7493 21.945 17.7866 18.9313 20.36 16.36C22.9334 13.7887 25.9544 11.7515 29.423 10.2484C32.8916 8.74524 36.5776 7.9958 40.481 8.00002C44.4288 8.00002 48.1327 8.74946 51.5928 10.2484C55.055 11.7494 58.0718 13.7866 60.6432 16.36C63.2145 18.9335 65.2507 21.9471 66.7517 25.4008C68.2527 28.8546 69.0021 32.5607 69 36.519C69 40.4288 68.2506 44.1169 66.7517 47.5833C65.2507 51.0498 63.2134 54.0687 60.64 56.64C58.0666 59.2113 55.0529 61.2486 51.5992 62.7517C48.1454 64.2548 44.4393 65.0042 40.481 65Z"/>
</mask>
<path d="M40.5792 27.7283H64.2975C62.9147 24.0065 60.7076 20.7173 57.676 17.861C54.6465 15.0068 51.1907 13.092 47.3083 12.1167L39.417 25.7207C39.1404 26.1682 39.1394 26.6147 39.4138 27.0602C39.6883 27.5077 40.0767 27.7315 40.5792 27.7315M30.5187 32.054C30.7931 32.5016 31.1805 32.7253 31.6808 32.7253C32.1812 32.7253 32.5696 32.5016 32.8462 32.054L44.8352 11.4929C44.2546 11.381 43.5326 11.2986 42.6692 11.2459C41.8057 11.1931 41.0827 11.1667 40.5 11.1667C37.0167 11.1667 33.7708 11.8264 30.7625 13.1459C27.7542 14.4653 25.0889 16.2334 22.7667 18.45L30.5187 32.054ZM15.9583 42.8333H31.6017C32.0893 42.8333 32.4778 42.6096 32.767 42.162C33.0562 41.7145 33.0626 41.268 32.786 40.8225L21.0377 20.3753C19.1862 22.6596 17.7454 25.1528 16.7152 27.855C15.6828 30.5593 15.1667 33.441 15.1667 36.5C15.1667 37.6083 15.2332 38.6776 15.3662 39.7078C15.4992 40.7381 15.6966 41.7799 15.9583 42.8333ZM33.8152 60.8833L41.6875 47.2793C41.9619 46.8318 41.9556 46.3853 41.6685 45.9398C41.3814 45.4944 40.994 45.2706 40.5063 45.2685H16.6993C18.0842 48.9925 20.3125 52.2827 23.3842 55.139C26.4558 57.9953 29.9339 59.9101 33.8183 60.8833M40.5 61.8333C43.9833 61.8333 47.2292 61.1736 50.2375 59.8542C53.2458 58.5347 55.9111 56.7667 58.2333 54.55L50.4813 40.946C50.2069 40.4985 49.8195 40.2747 49.3192 40.2747C48.8188 40.2747 48.4304 40.4985 48.1538 40.946L36.2852 61.3963C36.8657 61.542 37.555 61.6518 38.353 61.7257C39.151 61.7996 39.8667 61.8355 40.5 61.8333ZM59.9623 52.6247C61.6512 50.4608 63.0519 47.9718 64.1645 45.1577C65.277 42.3436 65.8333 39.4577 65.8333 36.5C65.8333 35.3917 65.7679 34.3235 65.637 33.2953C65.5061 32.2672 65.3077 31.2243 65.0417 30.1667H49.3983C48.9107 30.1667 48.5222 30.3905 48.233 30.838C47.9438 31.2856 47.9374 31.7321 48.214 32.1775L59.9623 52.6247ZM40.481 65C36.5712 65 32.8863 64.2537 29.4262 62.7612C25.9661 61.2686 22.9429 59.2282 20.3568 56.64C17.7707 54.0518 15.7314 51.0287 14.2388 47.5707C12.7463 44.1127 12 40.4288 12 36.519C12 32.5628 12.7494 28.8567 14.2483 25.4008C15.7493 21.945 17.7866 18.9313 20.36 16.36C22.9334 13.7887 25.9544 11.7515 29.423 10.2484C32.8916 8.74524 36.5776 7.9958 40.481 8.00002C44.4288 8.00002 48.1327 8.74946 51.5928 10.2484C55.055 11.7494 58.0718 13.7866 60.6432 16.36C63.2145 18.9335 65.2507 21.9471 66.7517 25.4008C68.2527 28.8546 69.0021 32.5607 69 36.519C69 40.4288 68.2506 44.1169 66.7517 47.5833C65.2507 51.0498 63.2134 54.0687 60.64 56.64C58.0666 59.2113 55.0529 61.2486 51.5992 62.7517C48.1454 64.2548 44.4393 65.0042 40.481 65Z" fill="white"/>
<path d="M64.2975 27.7283V35.7283H75.804L71.7967 24.9422L64.2975 27.7283ZM57.676 17.861L63.1621 12.0384L63.1619 12.0383L57.676 17.861ZM47.3083 12.1167L49.2575 4.35778L43.4124 2.88933L40.3883 8.10255L47.3083 12.1167ZM39.417 25.7207L46.2225 29.926L46.2811 29.8312L46.337 29.7348L39.417 25.7207ZM39.4138 27.0602L46.2337 22.8782L46.2293 22.871L46.2249 22.8638L39.4138 27.0602ZM30.5187 32.054L23.5679 36.0148L23.6316 36.1264L23.6988 36.236L30.5187 32.054ZM32.8462 32.054L39.6517 36.2593L39.7055 36.1722L39.7571 36.0837L32.8462 32.054ZM44.8352 11.4929L51.7461 15.5226L57.4309 5.77317L46.3491 3.63741L44.8352 11.4929ZM40.5 11.1667V19.1667V11.1667ZM22.7667 18.45L17.2429 12.6632L12.721 16.9795L15.8159 22.4108L22.7667 18.45ZM15.9583 42.8333L8.19445 44.7626L9.70301 50.8333H15.9583V42.8333ZM32.786 40.8225L25.8495 44.808L25.9174 44.9263L25.9894 45.0422L32.786 40.8225ZM21.0377 20.3753L27.9742 16.3898L22.1651 6.27941L14.8228 15.338L21.0377 20.3753ZM16.7152 27.855L24.1891 30.7081L24.1903 30.7049L16.7152 27.855ZM41.6875 47.2793L34.8676 43.0973L34.8143 43.1842L34.7633 43.2725L41.6875 47.2793ZM40.5063 45.2685L40.541 37.2686L40.5236 37.2685H40.5063V45.2685ZM16.6993 45.2685V37.2685H5.189L9.20104 48.057L16.6993 45.2685ZM40.5 61.8333V53.8333H40.4867L40.4733 53.8334L40.5 61.8333ZM58.2333 54.55L63.7571 60.3369L68.279 56.0206L65.184 50.5893L58.2333 54.55ZM50.4813 40.946L57.432 36.9853L57.3684 36.8736L57.3012 36.764L50.4813 40.946ZM48.1538 40.946L41.3483 36.7407L41.2902 36.8348L41.2347 36.9304L48.1538 40.946ZM36.2852 61.3963L29.366 57.3807L24.0328 66.5701L34.3382 69.1558L36.2852 61.3963ZM59.9623 52.6247L53.0258 56.6102L58.9511 66.9227L66.2689 57.5468L59.9623 52.6247ZM65.8333 36.5H73.8333H65.8333ZM65.0417 30.1667L72.8001 28.2155L71.2788 22.1667H65.0417V30.1667ZM48.214 32.1775L55.1505 28.192L55.0826 28.0737L55.0106 27.9578L48.214 32.1775ZM40.481 65L40.4895 57H40.481V65ZM12 36.519H4H12ZM14.2483 25.4008L6.91056 22.2138L6.90892 22.2176L14.2483 25.4008ZM40.481 8.00002L40.4723 16H40.481V8.00002ZM51.5928 10.2484L54.7749 2.90845L54.7728 2.90752L51.5928 10.2484ZM69 36.519L61 36.5147V36.519H69ZM66.7517 47.5833L74.093 50.7622L74.0946 50.7584L66.7517 47.5833ZM40.5792 27.7283V35.7283H64.2975V27.7283V19.7283H40.5792V27.7283ZM64.2975 27.7283L71.7967 24.9422C69.9642 20.01 67.0441 15.696 63.1621 12.0384L57.676 17.861L52.1899 23.6836C54.371 25.7387 55.8652 28.0029 56.7983 30.5145L64.2975 27.7283ZM57.676 17.861L63.1619 12.0383C59.1794 8.28605 54.5185 5.67946 49.2575 4.35778L47.3083 12.1167L45.3591 19.8756C47.8628 20.5046 50.1137 21.7275 52.19 23.6838L57.676 17.861ZM47.3083 12.1167L40.3883 8.10255L32.497 21.7066L39.417 25.7207L46.337 29.7348L54.2284 16.1308L47.3083 12.1167ZM39.417 25.7207L32.6115 21.5154C31.836 22.7703 31.2134 24.424 31.2088 26.3723C31.2042 28.3236 31.8209 29.9876 32.6028 31.2566L39.4138 27.0602L46.2249 22.8638C46.7323 23.6873 47.2123 24.9053 47.2088 26.4101C47.2052 27.9119 46.7214 29.1187 46.2225 29.926L39.417 25.7207ZM39.4138 27.0602L32.5939 31.2422C34.2436 33.9324 37.1456 35.7315 40.5792 35.7315V27.7315V19.7315C41.5567 19.7315 42.7425 19.9623 43.9044 20.6317C45.0506 21.292 45.7929 22.1592 46.2337 22.8782L39.4138 27.0602ZM30.5187 32.054L23.6988 36.236C25.3407 38.9137 28.2353 40.7253 31.6808 40.7253V32.7253V24.7253C32.6656 24.7253 33.8546 24.959 35.0166 25.6302C36.1615 26.2916 36.9006 27.1579 37.3385 27.872L30.5187 32.054ZM31.6808 32.7253V40.7253C35.1228 40.7253 38.0086 38.9184 39.6517 36.2593L32.8462 32.054L26.0406 27.8487C26.478 27.1408 27.2149 26.2818 28.354 25.6255C29.5109 24.9591 30.6957 24.7253 31.6808 24.7253V32.7253ZM32.8462 32.054L39.7571 36.0837L51.7461 15.5226L44.8352 11.4929L37.9242 7.46314L25.9352 28.0243L32.8462 32.054ZM44.8352 11.4929L46.3491 3.63741C45.314 3.43791 44.223 3.3259 43.1573 3.26075L42.6692 11.2459L42.1811 19.2309C42.8422 19.2714 43.1952 19.324 43.3212 19.3483L44.8352 11.4929ZM42.6692 11.2459L43.1573 3.26075C42.2009 3.2023 41.3028 3.16668 40.5 3.16668V11.1667V19.1667C40.8625 19.1667 41.4105 19.1838 42.1811 19.2309L42.6692 11.2459ZM40.5 11.1667V3.16668C35.9785 3.16668 31.631 4.0293 27.5492 5.81954L30.7625 13.1459L33.9758 20.4722C35.9107 19.6235 38.0549 19.1667 40.5 19.1667V11.1667ZM30.7625 13.1459L27.5492 5.81954C23.7071 7.5047 20.2554 9.78756 17.2429 12.6632L22.7667 18.45L28.2905 24.2369C29.9224 22.6791 31.8013 21.4259 33.9758 20.4722L30.7625 13.1459ZM22.7667 18.45L15.8159 22.4108L23.5679 36.0148L30.5187 32.054L37.4694 28.0933L29.7174 14.4893L22.7667 18.45ZM15.9583 42.8333V50.8333H31.6017V42.8333V34.8333H15.9583V42.8333ZM31.6017 42.8333V50.8333C35.091 50.8333 37.8855 48.9809 39.4861 46.5041L32.767 42.162L26.0479 37.8199C26.4637 37.1765 27.1685 36.3654 28.2653 35.7335C29.3911 35.085 30.5706 34.8333 31.6017 34.8333V42.8333ZM32.767 42.162L39.4861 46.5041C40.2867 45.2653 40.9596 43.5985 40.9879 41.6049C41.0163 39.6018 40.3848 37.8949 39.5826 36.6028L32.786 40.8225L25.9894 45.0422C25.4637 44.1956 24.9674 42.9346 24.9895 41.378C25.0114 39.8309 25.5365 38.6112 26.0479 37.8199L32.767 42.162ZM32.786 40.8225L39.7225 36.837L27.9742 16.3898L21.0377 20.3753L14.1011 24.3609L25.8495 44.808L32.786 40.8225ZM21.0377 20.3753L14.8228 15.338C12.4472 18.2689 10.577 21.4983 9.24 25.0051L16.7152 27.855L24.1903 30.7049C24.9138 28.8073 25.9253 27.0503 27.2525 25.4127L21.0377 20.3753ZM16.7152 27.855L9.24121 25.002C7.8417 28.6682 7.16667 32.5218 7.16667 36.5H15.1667H23.1667C23.1667 34.3602 23.524 32.4505 24.1891 30.7081L16.7152 27.855ZM15.1667 36.5H7.16667C7.16667 37.9282 7.25236 39.3405 7.43201 40.7321L15.3662 39.7078L23.3003 38.6836C23.214 38.0147 23.1667 37.2885 23.1667 36.5H15.1667ZM15.3662 39.7078L7.43201 40.7321C7.60606 42.0803 7.86189 43.4243 8.19445 44.7626L15.9583 42.8333L23.7222 40.904C23.5312 40.1355 23.3923 39.3958 23.3003 38.6836L15.3662 39.7078ZM33.8152 60.8833L40.7394 64.8902L48.6117 51.2862L41.6875 47.2793L34.7633 43.2725L26.8909 56.8765L33.8152 60.8833ZM41.6875 47.2793L48.5074 51.4614C49.2951 50.1768 49.916 48.4826 49.8878 46.4954C49.8597 44.5136 49.1948 42.8501 48.3927 41.6057L41.6685 45.9398L34.9443 50.274C34.4293 49.475 33.9112 48.2575 33.8894 46.7223C33.8675 45.1815 34.3543 43.9344 34.8676 43.0973L41.6875 47.2793ZM41.6685 45.9398L48.3927 41.6057C46.7906 39.12 44.0027 37.2836 40.541 37.2686L40.5063 45.2685L40.4717 53.2684C39.4515 53.264 38.2808 53.012 37.161 52.3652C36.0682 51.7339 35.3628 50.9233 34.9443 50.274L41.6685 45.9398ZM40.5063 45.2685V37.2685H16.6993V45.2685V53.2685H40.5063V45.2685ZM16.6993 45.2685L9.20104 48.057C11.045 53.0153 14.0035 57.3403 17.9364 60.9975L23.3842 55.139L28.8319 49.2805C26.6215 47.2251 25.1235 44.9697 24.1976 42.48L16.6993 45.2685ZM23.3842 55.139L17.9364 60.9975C21.9481 64.728 26.6171 67.3264 31.8741 68.6435L33.8183 60.8833L35.7626 53.1232C33.2507 52.4939 30.9636 51.2627 28.8319 49.2805L23.3842 55.139ZM40.5 61.8333V69.8333C45.0215 69.8333 49.369 68.9707 53.4508 67.1805L50.2375 59.8542L47.0242 52.5279C45.0893 53.3765 42.9451 53.8333 40.5 53.8333V61.8333ZM50.2375 59.8542L53.4508 67.1805C57.2929 65.4953 60.7446 63.2125 63.7571 60.3369L58.2333 54.55L52.7095 48.7632C51.0776 50.3209 49.1987 51.5741 47.0242 52.5279L50.2375 59.8542ZM58.2333 54.55L65.184 50.5893L57.432 36.9853L50.4813 40.946L43.5306 44.9068L51.2826 58.5108L58.2333 54.55ZM50.4813 40.946L57.3012 36.764C55.6593 34.0864 52.7647 32.2747 49.3192 32.2747V40.2747V48.2747C48.3344 48.2747 47.1454 48.0411 45.9834 47.3698C44.8385 46.7085 44.0994 45.8422 43.6614 45.128L50.4813 40.946ZM49.3192 40.2747V32.2747C45.8772 32.2747 42.9914 34.0816 41.3483 36.7407L48.1538 40.946L54.9594 45.1513C54.5219 45.8592 53.7851 46.7183 52.646 47.3745C51.4891 48.041 50.3043 48.2747 49.3192 48.2747V40.2747ZM48.1538 40.946L41.2347 36.9304L29.366 57.3807L36.2852 61.3963L43.2043 65.412L55.073 44.9617L48.1538 40.946ZM36.2852 61.3963L34.3382 69.1558C35.4233 69.4281 36.5369 69.5917 37.6154 69.6916L38.353 61.7257L39.0906 53.7598C38.5731 53.7118 38.3082 53.656 38.2321 53.6369L36.2852 61.3963ZM38.353 61.7257L37.6154 69.6916C38.6043 69.7832 39.5818 69.8364 40.5267 69.8333L40.5 61.8333L40.4733 53.8334C40.1515 53.8345 39.6976 53.816 39.0906 53.7598L38.353 61.7257ZM59.9623 52.6247L66.2689 57.5468C68.4736 54.722 70.239 51.5521 71.6042 48.099L64.1645 45.1577L56.7248 42.2164C55.8649 44.3915 54.8288 46.1996 53.6558 47.7025L59.9623 52.6247ZM64.1645 45.1577L71.6042 48.099C73.0782 44.3705 73.8333 40.4881 73.8333 36.5H65.8333H57.8333C57.8333 38.4272 57.4759 40.3166 56.7248 42.2164L64.1645 45.1577ZM65.8333 36.5H73.8333C73.8333 35.077 73.7493 33.6704 73.5729 32.285L65.637 33.2953L57.701 34.3057C57.7865 34.9765 57.8333 35.7064 57.8333 36.5H65.8333ZM65.637 33.2953L73.5729 32.285C73.3997 30.924 73.1399 29.5669 72.8001 28.2155L65.0417 30.1667L57.2833 32.1179C57.4754 32.8818 57.6125 33.6104 57.701 34.3057L65.637 33.2953ZM65.0417 30.1667V22.1667H49.3983V30.1667V38.1667H65.0417V30.1667ZM49.3983 30.1667V22.1667C45.909 22.1667 43.1144 24.0192 41.5139 26.4959L48.233 30.838L54.9521 35.1801C54.5363 35.8236 53.8315 36.6347 52.7347 37.2665C51.6089 37.915 50.4294 38.1667 49.3983 38.1667V30.1667ZM48.233 30.838L41.5139 26.4959C40.7133 27.7348 40.0404 29.4015 40.0121 31.3951C39.9837 33.3982 40.6152 35.1051 41.4174 36.3972L48.214 32.1775L55.0106 27.9578C55.5363 28.8045 56.0326 30.0654 56.0105 31.622C55.9886 33.1691 55.4635 34.3888 54.9521 35.1801L48.233 30.838ZM48.214 32.1775L41.2775 36.163L53.0258 56.6102L59.9623 52.6247L66.8989 48.6391L55.1505 28.192L48.214 32.1775ZM40.481 65V57C37.6192 57 35.0166 56.4601 32.5948 55.4155L29.4262 62.7612L26.2575 70.1069C30.7559 72.0473 35.5233 73 40.481 73V65ZM29.4262 62.7612L32.5948 55.4155C30.036 54.3117 27.8649 52.8359 26.016 50.9855L20.3568 56.64L14.6977 62.2946C18.021 65.6206 21.8961 68.2255 26.2575 70.1069L29.4262 62.7612ZM20.3568 56.64L26.016 50.9855C24.1647 49.1326 22.6883 46.9591 21.5839 44.4004L14.2388 47.5707L6.89382 50.741C8.77452 55.0982 11.3768 58.971 14.6977 62.2946L20.3568 56.64ZM14.2388 47.5707L21.5839 44.4004C20.5399 41.9817 20 39.3809 20 36.519H12H4C4 41.4767 4.95266 46.2436 6.89382 50.741L14.2388 47.5707ZM12 36.519H20C20 33.6018 20.5464 30.9851 21.5877 28.5841L14.2483 25.4008L6.90892 22.2176C4.95251 26.7284 4 31.5238 4 36.519H12ZM14.2483 25.4008L21.5861 28.5879C22.701 26.021 24.178 23.8542 26.0145 22.0192L20.36 16.36L14.7055 10.7008C11.3951 14.0085 8.79769 17.8689 6.91056 22.2138L14.2483 25.4008ZM20.36 16.36L26.0145 22.0192C27.8487 20.1865 30.0216 18.7078 32.604 17.5887L29.423 10.2484L26.242 2.90796C21.8873 4.79509 18.0182 7.39084 14.7055 10.7008L20.36 16.36ZM29.423 10.2484L32.604 17.5887C35.0327 16.5362 37.6295 15.9969 40.4723 16L40.481 8.00002L40.4897 2.24113e-05C35.5256 -0.00534725 30.7504 0.954252 26.242 2.90796L29.423 10.2484ZM40.481 8.00002V16C43.3872 16 46.0035 16.5455 48.4128 17.5892L51.5928 10.2484L54.7728 2.90752C50.262 0.953466 45.4703 1.7643e-05 40.481 1.7643e-05V8.00002ZM51.5928 10.2484L48.4107 17.5883C50.9836 18.7037 53.1514 20.1804 54.984 22.0145L60.6432 16.36L66.3023 10.7055C62.9923 7.39271 59.1265 4.79502 54.7749 2.90845L51.5928 10.2484ZM60.6432 16.36L54.984 22.0145C56.8214 23.8535 58.2991 26.0227 59.4146 28.5895L66.7517 25.4008L74.0887 22.2122C72.2023 17.8715 69.6075 14.0134 66.3023 10.7055L60.6432 16.36ZM66.7517 25.4008L59.4146 28.5895C60.4555 30.9846 61.0015 33.5977 61 36.5147L69 36.519L77 36.5233C77.0027 31.5236 76.0498 26.7247 74.0887 22.2122L66.7517 25.4008ZM69 36.519H61C61 39.3761 60.4588 41.9798 59.4087 44.4083L66.7517 47.5833L74.0946 50.7584C76.0423 46.254 77 41.4815 77 36.519H69ZM66.7517 47.5833L59.4103 44.4045C58.2946 46.9813 56.818 49.1498 54.9855 50.9808L60.64 56.64L66.2945 62.2992C69.6089 58.9875 72.2068 55.1182 74.093 50.7622L66.7517 47.5833ZM60.64 56.64L54.9855 50.9808C53.1456 52.8192 50.9752 54.2984 48.4067 55.4163L51.5992 62.7517L54.7916 70.0871C59.1307 68.1987 62.9875 65.6035 66.2945 62.2992L60.64 56.64ZM51.5992 62.7517L48.4067 55.4163C46.0139 56.4576 43.4036 57.0031 40.4895 57L40.481 65L40.4725 73C45.475 73.0053 50.2768 72.0519 54.7916 70.0871L51.5992 62.7517Z" fill="#714EF4" mask="url(#path-1-outside-1_109_1788)"/>
</g>
<defs>
<filter id="filter0_d_109_1788" x="0" y="0" width="81" height="81" filterUnits="userSpaceOnUse" color-interpolation-filters="sRGB">
<feFlood flood-opacity="0" result="BackgroundImageFix"/>
<feColorMatrix in="SourceAlpha" type="matrix" values="0 0 0 0 0 0 0 0 0 0 0 0 0 0 0 0 0 0 127 0" result="hardAlpha"/>
<feOffset dy="4"/>
<feGaussianBlur stdDeviation="2"/>
<feComposite in2="hardAlpha" operator="out"/>
<feColorMatrix type="matrix" values="0 0 0 0 0 0 0 0 0 0 0 0 0 0 0 0 0 0 0.25 0"/>
<feBlend mode="normal" in2="BackgroundImageFix" result="effect1_dropShadow_109_1788"/>
<feBlend mode="normal" in="SourceGraphic" in2="effect1_dropShadow_109_1788" result="shape"/>
</filter>
</defs>
</svg>
