<svg width="25" height="26" viewBox="0 0 25 26" fill="none" xmlns="http://www.w3.org/2000/svg">
<path d="M12.4799 23.3176C12.1276 23.3176 11.8316 23.1837 11.592 22.9159L3.26237 13.6773C3.10733 13.5081 3.0122 13.3073 2.97696 13.0747C2.94173 12.8422 2.96991 12.6167 3.06153 12.3982C3.15314 12.1798 3.2976 12.0071 3.49492 11.8803C3.69224 11.7534 3.9107 11.69 4.1503 11.69H8.12483V4.41744C8.12483 4.09328 8.24111 3.81492 8.47366 3.58237C8.70621 3.34982 8.98457 3.23354 9.30873 3.23354H15.6511C15.9752 3.23354 16.2536 3.34982 16.4862 3.58237C16.7187 3.81492 16.835 4.09328 16.835 4.41744V11.69H20.8095C21.035 11.69 21.2464 11.7534 21.4438 11.8803C21.6411 12.0071 21.7891 12.1798 21.8877 12.3982C21.9864 12.6167 22.0181 12.8422 21.9828 13.0747C21.9476 13.3073 21.8525 13.5081 21.6974 13.6773L13.3678 22.9159C13.1282 23.1837 12.8323 23.3176 12.4799 23.3176ZM4.44627 13.0219L12.4799 21.9223L20.5135 13.0219H15.5242V4.54429H9.43558V13.0007L4.44627 13.0219Z" fill="#714EF4"/>
</svg>
