<svg width="25" height="26" viewBox="0 0 25 26" fill="none" xmlns="http://www.w3.org/2000/svg">
<path d="M16.1098 23.3071H9.76743C9.44327 23.3071 9.16491 23.1908 8.93236 22.9582C8.69981 22.7257 8.58353 22.4473 8.58353 22.1231V14.8506H4.609C4.38349 14.8506 4.17208 14.7872 3.97476 14.6603C3.77744 14.5335 3.62946 14.3608 3.5308 14.1424C3.43214 13.9239 3.40043 13.6984 3.43566 13.4658C3.4709 13.2333 3.56603 13.0325 3.72107 12.8633L12.0507 3.62465C12.2903 3.37095 12.5863 3.24411 12.9386 3.24411C13.291 3.24411 13.5869 3.37095 13.8265 3.62465L22.1561 12.8633C22.3112 13.0325 22.4063 13.2333 22.4415 13.4658C22.4768 13.6984 22.4486 13.9239 22.357 14.1424C22.2654 14.3608 22.1209 14.5335 21.9236 14.6603C21.7263 14.7872 21.5078 14.8506 21.2682 14.8506H17.2937V22.1231C17.2937 22.4473 17.1774 22.7257 16.9449 22.9582C16.7123 23.1908 16.4339 23.3071 16.1098 23.3071ZM9.89428 21.9963H15.9829V13.5398L20.9722 13.5187L12.9386 4.61828L4.90497 13.5187H9.89428V21.9963Z" fill="#714EF4"/>
</svg>
